# xmcd
#
# Track frame offsets:
#	150
#	14286
#	27054
#	39294
#	49608
#	62184
#	77531
#	90454
#	103904
#	119983
#
# Disc length: 1795 seconds
#
# Revision: 0
# Processed by: cddbd v1.5.2PL0 Copyright (c) Steve Scherf et al.
# Submitted via: EasyCDDAExtractor 16.0.6.1
#
DISCID=7807010a
DTITLE=Συλλογικός δίσκος - Λαϊκό τραγούδι στον κινηματογράφο 5
DYEAR=2008
DGENRE=Λαϊκή
TTITLE0=Μοσχολιού Βίκυ-Τζουανάκος Σταύρος - Νά 'ξερες πόσο πόνεσα [Σταύρος Τζο
TTITLE0=υανάκος-Απ. Γαβριηλίδης]
TTITLE1=Ζαννίνου Σόφη - Πήρε φωτιά η σούστα μου Γιάννης Καραμπεσίνης]
TTITLE2=Παπαμιχαήλ Δημήτρης - Το ταβερνάκι [Γιώργος Ζαμπέτας-Ξενοφών Φιλέρης]
TTITLE3=Ροδά Ελένη - Η δουλειά κάνει τους άντρες [Μάνος Λοϊζος-Λευτέρης Παπαδό
TTITLE3=πουλος]
TTITLE4=Μπιθικώτσης Γρηγόρης - Ποδαράδες και Κοκκινιά [Απόστολος Καλδάρας]
TTITLE5=Μενιδιάτης Μιχάλης-Λαμπράκη Χαρούλα - Δικαίωμά μου είναι να σ' αγαπώ [
TTITLE5=Απόστολος Καλδάρας]
TTITLE6=Μπιθικώτσης Γρηγόρης - Το ποτάμι [Απόστολος Καλδάρας]
TTITLE7=Τσαουσάκης Πρόδρομος - Ο Μαθιός [Γιώργος Κατσαρός-Λευτέρης Παπαδόπουλο
TTITLE7=ς]
TTITLE8=Καζαντζίδης Στέλιος-Διαμάντη Λίτσα - Έφυγε, έφυγε [Βασ. Βασιλειάδης-Πυ
TTITLE8=θαγόρας/Παρθενόπη Ζεμανατίδου]
TTITLE9=Λαμπράκη Χαρούλα-Καλδάρας Απόστολος - Τα καλά όλου του κόσμου [Απόστολ
TTITLE9=ος Καλδάρας-Ουρανία Λιανδράκη]
EXTD=
EXTT0=
EXTT1=
EXTT2=
EXTT3=
EXTT4=
EXTT5=
EXTT6=
EXTT7=
EXTT8=
EXTT9=
PLAYORDER=
